<?xml version="1.0"?>
<svg xmlns="http://www.w3.org/2000/svg" xmlns:xlink="http://www.w3.org/1999/xlink" xmlns:svgjs="http://svgjs.com/svgjs" version="1.1" width="512" height="512" x="0" y="0" viewBox="0 0 512 512" style="enable-background:new 0 0 512 512" xml:space="preserve" class=""><g transform="matrix(1,0,0,1,5,0)"><path xmlns="http://www.w3.org/2000/svg" d="m339.42 480h-246.84a40 40 0 0 1 -39.76-44.32l21.35-196.43a142.665 142.665 0 0 1 131.41-126.87c3.44-.25 6.92-.38 10.42-.38s6.98.13 10.42.38a142.662 142.662 0 0 1 131.41 126.87l21.35 196.43a40 40 0 0 1 -39.76 44.32z" fill="#d1d1d1" data-original="#e3e4e2" style="" class=""/><path xmlns="http://www.w3.org/2000/svg" d="m183.344 135.987-28.021-103.987h120l-30.074 103.987z" fill="#d1d1d1" data-original="#e3e4e2" style="" class=""/><path xmlns="http://www.w3.org/2000/svg" d="m419.8 480h-135.6a39.992 39.992 0 0 1 -39.8-43.98l10.84-108.46a97.243 97.243 0 0 1 193.52 0l10.84 108.46a39.992 39.992 0 0 1 -39.8 43.98z" fill="#0093b9" data-original="#0093b9" style="" class=""/><path xmlns="http://www.w3.org/2000/svg" d="m332.391 255.368-20.391-71.368h80l-20.391 71.368z" fill="#0093b9" data-original="#0093b9" style="" class=""/><path xmlns="http://www.w3.org/2000/svg" d="m220.391 343.368-20.391-71.368h80l-20.391 71.368z" fill="#00efd1" data-original="#56c3c1" style="" class=""/><path xmlns="http://www.w3.org/2000/svg" d="m289.19 480h-98.38a40 40 0 0 1 -39.51-46.24l5.47-34.64a84.254 84.254 0 0 1 72.95-70.49 84.187 84.187 0 0 1 20.56 0 84.251 84.251 0 0 1 72.95 70.49l5.47 34.64a40 40 0 0 1 -39.51 46.24z" fill="#00efd1" data-original="#56c3c1" style="" class=""/><path xmlns="http://www.w3.org/2000/svg" d="m331.131 397.871a92.14 92.14 0 0 0 -58.261-71.794l14.822-51.877a8 8 0 0 0 -7.692-10.2h-80a8 8 0 0 0 -7.692 10.2l14.822 51.879a92.14 92.14 0 0 0 -58.261 71.794l-5.469 34.641a48 48 0 0 0 47.412 55.486h98.376a48 48 0 0 0 47.412-55.486zm-120.525-117.871h58.788l-11.912 41.693a91.106 91.106 0 0 0 -34.964 0zm102.911 180.788a31.961 31.961 0 0 1 -24.329 11.212h-98.376a32 32 0 0 1 -31.612-36.99l5.47-34.643a76.236 76.236 0 0 1 58.424-62.467l-29.6 41.446 13.02 9.3 25.486-35.682v39.036h16v-39.036l25.49 35.686 13.02-9.3-29.6-41.446a76.236 76.236 0 0 1 58.421 62.463l5.47 34.643a31.957 31.957 0 0 1 -7.284 25.778z" fill="#093964" data-original="#000000" style="" class=""/><path xmlns="http://www.w3.org/2000/svg" d="m456.717 326.768a105.272 105.272 0 0 0 -71.633-89.441l14.608-51.127a8 8 0 0 0 -7.692-10.2h-80a8 8 0 0 0 -7.692 10.2l14.606 51.122a104.919 104.919 0 0 0 -27.524 13.878l9.22 13.076a88.658 88.658 0 0 1 32.216-14.2l-34.9 40.717 12.148 10.412 33.926-39.579v50.374h16v-50.374l33.926 39.58 12.148-10.412-34.906-40.724a88.912 88.912 0 0 1 69.632 78.289l10.846 108.456a32 32 0 0 1 -31.846 35.185h-75.8v16h75.8a48 48 0 0 0 47.762-52.776zm-134.111-134.768h58.788l-11.855 41.491a104.63 104.63 0 0 0 -35.084-.02z" fill="#093964" data-original="#000000" style="" class=""/><path xmlns="http://www.w3.org/2000/svg" d="m444.088 235.482a137.294 137.294 0 0 0 -32.62-21.945l-6.936 14.418a121.348 121.348 0 0 1 67.545 92.533l15.847-2.207a137.428 137.428 0 0 0 -43.836-82.799z" fill="#093964" data-original="#000000" style="" class=""/><path xmlns="http://www.w3.org/2000/svg" d="m68.765 461.37a32.041 32.041 0 0 1 -7.994-24.828l21.351-196.428a134.447 134.447 0 0 1 116.669-119.014l-45.106 57.993 12.63 9.822 41.685-53.599v72.684h16v-72.684l41.685 53.6 12.63-9.822-45.088-57.97a135.353 135.353 0 0 1 80.944 41.361l11.659-10.957a151.219 151.219 0 0 0 -64.992-40.641l22.17-76.659a8 8 0 0 0 -7.685-10.228h-120a8 8 0 0 0 -7.723 10.081l20.9 77.547a150.447 150.447 0 0 0 -102.285 126.758l-21.35 196.427a48 48 0 0 0 47.718 53.187h43.417v-16h-43.417a32.042 32.042 0 0 1 -23.818-10.63zm97-421.37h98.918l-19.354 66.921a149.6 149.6 0 0 0 -29.329-2.921 151.653 151.653 0 0 0 -32.069 3.416z" fill="#093964" data-original="#000000" style="" class=""/><path xmlns="http://www.w3.org/2000/svg" d="m50.309 236.656a167.194 167.194 0 0 1 66.452-116l-9.523-12.856a183.237 183.237 0 0 0 -72.838 127.128l-4.8 44.208 15.9 1.728z" fill="#093964" data-original="#000000" style="" class=""/><path xmlns="http://www.w3.org/2000/svg" d="m26.895 296h16.094v16h-16.094z" transform="matrix(.108 -.994 .994 .108 -271.054 305.896)" fill="#093964" data-original="#000000" style="" class=""/></g></svg>
